# File created by Blade
# Date/Time:  Tue Jan 27 19:05:02 2015
# Frame Rate: 120.000 fps
#------------------------------------------------------
:FULLY-SPECIFIED
:DEGREES
2829
root -2.034059 31.831927 -5.669715 12.491409 -27.976889 -10.177043
Spine 1.744357 8.033895 0.573231
Head 19.570707 27.885405 -5.000303
LeftShoulder -20.070152 20.433011 13.601853
LeftArm -5.941825 -54.242132 -66.115816
LeftForeArm -9.838137 0.000000 101.031916
LeftHand -14.146041 -0.000000 39.285102
LeftHandThumb1 -26.253704 0.000000 33.147579
RightShoulder -0.953334 12.811631 -6.756895
RightArm 45.868808 -70.733349 56.838483
RightForeArm -32.255105 -0.000000 24.122215
RightHand -11.824055 0.000000 15.807900
RightHandThumb1 -24.326973 -0.000000 -32.862282
LeftUpLeg -15.602839 13.582479 -3.672434
LeftLeg 21.121064 -0.000000 -0.000000
LeftFoot -31.175964 27.915513 -19.651104
LeftToeBase 11.042887 -0.000000 -0.000000
RightUpLeg -34.806711 -38.833367 11.419427
RightLeg 95.774697 -0.000000 -0.000000
RightFoot -7.416787 -16.183713 22.521549
RightToeBase 2.061630 -0.000000 -0.000000
2830
root -2.023856 31.829241 -5.664230 12.443444 -28.222077 -10.193299
Spine 1.913363 8.352193 0.553491
Head 19.607088 27.791676 -5.043413
LeftShoulder -20.077104 20.384063 13.592802
LeftArm -5.794465 -54.179608 -66.290887
LeftForeArm -9.751717 -0.000000 101.103736
LeftHand -14.219666 -0.000000 39.069705
LeftHandThumb1 -26.253704 0.000000 33.147579
RightShoulder -0.823390 12.767893 -6.761542
RightArm 46.778628 -70.828704 55.821479
RightForeArm -32.131104 -0.000000 24.021315
RightHand -11.932639 -0.000000 15.909586
RightHandThumb1 -24.326973 -0.000000 -32.862282
LeftUpLeg -15.494323 13.605694 -3.692309
LeftLeg 21.060605 -0.000000 -0.000000
LeftFoot -31.194189 28.131322 -19.658057
LeftToeBase 10.889615 -0.000000 -0.000000
RightUpLeg -35.548345 -41.050687 12.148569
RightLeg 96.085214 -0.000000 -0.000000
RightFoot -7.153270 -16.129565 22.662453
RightToeBase 1.892039 -0.000000 -0.000000
2831
root -2.007785 31.824749 -5.658762 12.362201 -28.465002 -10.179109
Spine 2.120949 8.662605 0.534465
Head 19.644470 27.691324 -5.120702
LeftShoulder -20.086371 20.320448 13.582120
LeftArm -5.666360 -54.117652 -66.478695
LeftForeArm -9.591661 -0.000000 101.140638
LeftHand -14.163022 -0.000000 39.131170
LeftHandThumb1 -26.253704 0.000000 33.147579
RightShoulder -0.621126 12.810530 -6.797799
RightArm 47.491795 -70.941812 55.028437
RightForeArm -32.026355 -0.000000 23.830838
RightHand -11.866978 -0.000000 15.975179
RightHandThumb1 -24.326973 -0.000000 -32.862282
LeftUpLeg -15.371305 13.537298 -3.729673
LeftLeg 21.016165 -0.000000 -0.000000
LeftFoot -31.300825 28.330841 -19.788186
LeftToeBase 10.897797 -0.000000 -0.000000
RightUpLeg -36.355706 -43.283309 12.889717
RightLeg 96.455312 -0.000000 -0.000000
RightFoot -7.050446 -15.959021 23.031732
RightToeBase 2.145784 -0.000000 -0.000000
2832
root -1.998263 31.819119 -5.647184 12.240044 -28.788211 -10.193532
Spine 2.352026 9.102005 0.518778
Head 19.771140 27.525332 -5.125714
LeftShoulder -20.035350 20.292500 13.609572
LeftArm -5.572639 -54.122597 -66.675359
LeftForeArm -9.580586 0.000000 101.194681
LeftHand -14.051850 -0.000000 39.362870
LeftHandThumb1 -26.253704 0.000000 33.147579
RightShoulder -0.402691 12.995177 -6.809682
RightArm 48.118297 -71.211457 54.266654
RightForeArm -31.919636 -0.000000 23.627471
RightHand -11.735395 -0.000000 16.294951
RightHandThumb1 -24.326973 -0.000000 -32.862282
LeftUpLeg -15.209136 13.641571 -3.752988
LeftLeg 21.044586 -0.000000 -0.000000
LeftFoot -31.495972 28.401134 -19.986303
LeftToeBase 10.966333 -0.000000 -0.000000
RightUpLeg -37.147103 -45.452515 13.663068
RightLeg 96.850149 -0.000000 -0.000000
RightFoot -6.959544 -15.808067 23.195710
RightToeBase 2.840378 -0.000000 -0.000000
2833
root -1.985276 31.812293 -5.637434 12.135907 -29.150716 -10.193292
Spine 2.566554 9.563684 0.484612
Head 19.899640 27.361147 -5.142501
LeftShoulder -19.989751 20.261736 13.632567
LeftArm -5.574427 -54.155594 -66.826154
LeftForeArm -9.632427 -0.000000 101.293539
LeftHand -13.960188 -0.000000 39.471614
LeftHandThumb1 -26.253704 0.000000 33.147579
RightShoulder -0.150657 13.055986 -6.839487
RightArm 49.236109 -71.461398 53.051899
RightForeArm -31.783733 -0.000000 23.408085
RightHand -11.576545 0.000000 16.647549
RightHandThumb1 -24.326973 -0.000000 -32.862282
LeftUpLeg -15.003361 13.588105 -3.778224
LeftLeg 20.942277 -0.000000 -0.000000
LeftFoot -31.683451 28.618034 -20.202650
LeftToeBase 11.017631 -0.000000 -0.000000
RightUpLeg -38.054880 -47.562885 14.468655
RightLeg 97.331246 -0.000000 -0.000000
RightFoot -6.642073 -15.465638 23.439227
RightToeBase 2.892973 -0.000000 -0.000000
2834
root -1.976215 31.805109 -5.627906 12.031701 -29.560939 -10.220648
Spine 2.802516 10.078717 0.464270
Head 20.006220 27.220836 -5.179651
LeftShoulder -19.974928 20.234936 13.632461
LeftArm -5.619827 -54.212660 -66.926134
LeftForeArm -9.796694 0.000000 101.426763
LeftHand -13.906978 0.000000 39.604983
LeftHandThumb1 -26.253704 0.000000 33.147579
RightShoulder 0.105976 13.195355 -6.836210
RightArm 50.598267 -71.798073 51.612537
RightForeArm -31.547102 -0.000000 23.069056
RightHand -11.478441 -0.000000 16.845322
RightHandThumb1 -24.326973 -0.000000 -32.862282
LeftUpLeg -14.833802 13.694224 -3.807340
LeftLeg 20.922104 -0.000000 -0.000000
LeftFoot -31.815935 28.908026 -20.266047
LeftToeBase 11.015508 -0.000000 -0.000000
RightUpLeg -38.999451 -49.609515 15.339568
RightLeg 97.830731 -0.000000 -0.000000
RightFoot -6.543396 -15.060685 23.952134
RightToeBase 3.530197 -0.000000 -0.000000
2835
root -1.968607 31.798016 -5.616371 11.921297 -30.046938 -10.256142
Spine 3.050824 10.651245 0.444016
Head 20.111978 27.127576 -5.217939
LeftShoulder -19.974809 20.213552 13.610092
LeftArm -5.740140 -54.285705 -66.958401
LeftForeArm -9.913423 0.000000 101.561320
LeftHand -13.971300 0.000000 39.567718
LeftHandThumb1 -26.253704 0.000000 33.147579
RightShoulder 0.376265 13.378269 -6.846209
RightArm 52.501466 -72.329625 49.599631
RightForeArm -31.539117 -0.000000 22.743096
RightHand -11.550595 -0.000000 16.446168
RightHandThumb1 -24.326973 -0.000000 -32.862282
LeftUpLeg -14.646699 13.818314 -3.824624
LeftLeg 20.926774 -0.000000 -0.000000
LeftFoot -32.005394 29.128538 -20.448395
LeftToeBase 10.978792 -0.000000 -0.000000
RightUpLeg -39.983842 -51.561192 16.235976
RightLeg 98.360262 -0.000000 -0.000000
RightFoot -6.370511 -14.582361 24.359152
RightToeBase 4.054414 -0.000000 -0.000000
2836
root -1.963327 31.790425 -5.602321 11.775787 -30.578154 -10.266290
Spine 3.304935 11.242722 0.374818
Head 20.259670 27.014454 -5.210389
LeftShoulder -20.000131 20.220428 13.591867
LeftArm -5.903451 -54.370292 -66.967798
LeftForeArm -10.167071 -0.000000 101.718947
LeftHand -13.830879 -0.000000 39.190511
LeftHandThumb1 -26.253704 0.000000 33.147579
RightShoulder 0.684389 13.583404 -6.820549
RightArm 53.918747 -72.691135 48.138436
RightForeArm -31.307430 0.000000 22.429071
RightHand -11.537136 -0.000000 16.801146
RightHandThumb1 -24.326973 -0.000000 -32.862282
LeftUpLeg -14.453092 14.078733 -3.873147
LeftLeg 20.974729 -0.000000 -0.000000
LeftFoot -32.179493 29.237676 -20.633460
LeftToeBase 10.951326 -0.000000 -0.000000
RightUpLeg -40.948784 -53.411251 17.077716
RightLeg 98.925569 -0.000000 -0.000000
RightFoot -6.770194 -13.967326 26.074915
RightToeBase 5.582828 -0.000000 -0.000000
